<?xml version="1.0" standalone="no"?>
<!DOCTYPE svg PUBLIC "-//W3C//DTD SVG 1.1//EN" "http://www.w3.org/Graphics/SVG/1.1/DTD/svg11.dtd" >
<svg xmlns="http://www.w3.org/2000/svg">
<metadata>
Created by FontForge 20120731 at Tue Jul  7 17:26:50 2015
 By Ads
</metadata>
<defs>
<font id="iconfont" horiz-adv-x="1024" >
  <font-face 
    font-family="iconfont"
    font-weight="500"
    font-stretch="normal"
    units-per-em="1024"
    panose-1="2 0 6 3 0 0 0 0 0 0"
    ascent="812"
    descent="-212"
    x-height="792"
    bbox="0.482143 -224 1024.15 800"
    underline-thickness="50"
    underline-position="-100"
    unicode-range="U+0078-E619"
  />
<missing-glyph horiz-adv-x="374" 
d="M34 0v682h272v-682h-272zM68 34h204v614h-204v-614z" />
    <glyph glyph-name=".notdef" horiz-adv-x="374" 
d="M34 0v682h272v-682h-272zM68 34h204v614h-204v-614z" />
    <glyph glyph-name=".null" horiz-adv-x="0" 
 />
    <glyph glyph-name="nonmarkingreturn" horiz-adv-x="341" 
 />
    <glyph glyph-name="x" unicode="x" horiz-adv-x="1001" 
d="M281 543q-27 -1 -53 -1h-83q-18 0 -36.5 -6t-32.5 -18.5t-23 -32t-9 -45.5v-76h912v41q0 16 -0.5 30t-0.5 18q0 13 -5 29t-17 29.5t-31.5 22.5t-49.5 9h-133v-97h-438v97zM955 310v-52q0 -23 0.5 -52t0.5 -58t-10.5 -47.5t-26 -30t-33 -16t-31.5 -4.5q-14 -1 -29.5 -0.5
t-29.5 0.5h-32l-45 128h-439l-44 -128h-29h-34q-20 0 -45 1q-25 0 -41 9.5t-25.5 23t-13.5 29.5t-4 30v167h911zM163 247q-12 0 -21 -8.5t-9 -21.5t9 -21.5t21 -8.5q13 0 22 8.5t9 21.5t-9 21.5t-22 8.5zM316 123q-8 -26 -14 -48q-5 -19 -10.5 -37t-7.5 -25t-3 -15t1 -14.5
t9.5 -10.5t21.5 -4h37h67h81h80h64h36q23 0 34 12t2 38q-5 13 -9.5 30.5t-9.5 34.5q-5 19 -11 39h-368zM336 498v228q0 11 2.5 23t10 21.5t20.5 15.5t34 6h188q31 0 51.5 -14.5t20.5 -52.5v-227h-327z" />
    <glyph glyph-name="uniE600" unicode="&#xe600;" horiz-adv-x="1000" 
d="M156 633q63 60 150 66q33 3 66.5 -4t62.5 -22q43 -21 79 -62q39 44 86 65q30 16 75 22q23 3 46.5 1t46 -8t44 -16t39.5 -24q44 -33 70 -82t29 -103q5 -118 -68 -224q-41 -58 -111 -119q-9 -8 -18.5 -15.5t-20 -15.5t-19 -14.5t-20.5 -15.5t-19.5 -14t-21.5 -14.5
t-20 -13.5l-21 -14q-15 -10 -20 -14q-19 -12 -38 -26t-39 -30q-43 34 -82 59l-20 13q-16 11 -20 14t-19 13t-20.5 14t-18.5 13.5t-20 15t-18.5 14t-19.5 15t-18 15t-18 16.5q-96 85 -135 177q-18 44 -24 90q-7 51 0 90q14 82 75 138zM268 654q-47 -13 -85 -47.5t-55 -81.5
q-22 -57 -6 -135q17 -85 83 -163q66 -77 209 -174q86 -58 100 -69q13 10 101 71q106 71 161 123q39 37 69 78t47 86q26 70 18 139q-2 17 -7 33.5t-12.5 31.5t-18 29t-22.5 26t-26 22.5t-30 17.5q-31 15 -66 19t-70 -3q-50 -11 -89 -45q-8 -6 -16 -14.5t-13 -15t-13.5 -18
t-12.5 -17.5q-8 11 -15 20t-13 17q-41 50 -100 68q-58 19 -118 2z" />
    <glyph glyph-name="uniE601" unicode="&#xe601;" 
d="M508 -214q-8 9 -21.5 24.5t-53 63.5t-75.5 95.5t-80 112t-75.5 121t-53 115.5t-21.5 102q0 103 51 190.5t138.5 138.5t191 51t191 -51t138.5 -138.5t51 -190.5q0 -158 -264 -494q-65 -83 -117 -140zM508.5 751q-67.5 0 -129 -26.5t-106 -71.5t-70.5 -107.5t-26 -130.5
q0 -52 35.5 -131t79.5 -146t101 -141.5t79.5 -101t35.5 -41.5q14 15 36 41.5t79.5 101t101 141.5t79.5 146t36 131q0 68 -26.5 130.5t-70.5 107.5t-105.5 71.5t-129 26.5zM508 293q-43 0 -79.5 21t-57.5 57.5t-21 79.5q0 66 46.5 112.5t112 46.5t112 -46.5t46.5 -112
t-46.5 -112t-112.5 -46.5zM508 566q-31 0 -58 -15.5t-43 -42.5t-16 -59q0 -49 34.5 -83t82.5 -34q32 0 59 15.5t42.5 42.5t15.5 59q0 10 -1.5 19t-4.5 18t-7 17t-9.5 15t-11.5 13.5t-13.5 12t-15.5 9.5t-16.5 7t-18 4.5t-19.5 1.5z" />
    <glyph glyph-name="uniE602" unicode="&#xe602;" 
d="M948 545l-545 -546l-2 2l-4 -4l-321 317l33 34l290 -285l515 516z" />
    <glyph glyph-name="uniE603" unicode="&#xe603;" 
d="M824 -224q-44 0 -100.5 16t-125 48.5t-148.5 91.5t-158 137q-61 61 -112.5 128t-87 128.5t-58 120t-30 106.5t-1 85.5t28.5 58.5q6 7 18 20q19 20 30.5 30.5t30 25.5t37 21.5t38.5 6.5q61 0 122 -76q22 -26 36.5 -49.5t21.5 -43.5t10.5 -35.5t-0.5 -31.5t-7.5 -26.5
t-15.5 -25t-19 -22.5t-22 -22l-11 -11q-4 -4 -5.5 -8.5t-1.5 -9.5q0 -62 154 -215q86 -86 137.5 -120t77.5 -34q11 0 18 7l11 11q22 22 34 33t34 21.5t44 10.5q58 0 144 -69q73 -59 76 -118q1 -16 -4.5 -33t-12 -29.5t-20.5 -28.5t-23 -25l-24 -24q-1 0 -4 -2l-2 -4l-3 -2
q-2 -2 -3 -2.5t-2.5 -2.5t-3 -3t-2.5 -2q-15 -16 -40 -24t-56 -8zM186 767q-12 0 -24.5 -5t-22.5 -11t-23.5 -17.5t-20.5 -19t-21 -21.5q-12 -13 -19 -20q-20 -20 -23 -60.5t13 -98.5t49 -124.5t90.5 -145t131.5 -152.5q75 -75 152 -132t142 -88.5t118.5 -47t95.5 -15.5
q51 0 73 22q5 5 20 19q24 23 36.5 36.5t25.5 36t12 42.5q-1 22 -17 45.5t-46 47.5q-77 62 -124 62q-23 0 -41.5 -13t-47.5 -43l-11 -11q-22 -21 -59.5 -13.5t-92.5 48t-128 112.5q-163 163 -163 239q0 25 16 41l11 11q12 11 17 16.5t14 15.5t12 16l8 16q5 10 5 18t-0.5 19.5
t-5.5 22.5t-12 25t-18 29.5t-26 34.5q-16 21 -32.5 35t-32.5 21t-31 7z" />
    <glyph glyph-name="uniE604" unicode="&#xe604;" 
d="M396 644h232q16 0 30 -6t24.5 -17.5t15.5 -25.5l1 -1l49 -113h140q20 0 38.5 -7.5t32.5 -22.5q29 -29 29 -70v-460q0 -42 -29 -71q-6 -6 -12 -10.5t-13 -8t-14.5 -6t-15.5 -3.5t-16 -1h-752q-42 0 -71 29t-29 71v460q0 41 29 70.5t71 29.5h140l50 114v1q4 10 11 19t16 15
q19 14 43 14zM512 -18q78 0 133.5 55.5t55.5 134.5q0 51 -25 94.5t-69 69t-95 25.5q-78 0 -133.5 -55.5t-55.5 -134t55.5 -134t133.5 -55.5zM628 670h-232q-16 0 -31 -5t-27 -13.5t-21.5 -20.5t-14.5 -26l-42 -99h-124q-34 0 -63 -16.5t-46 -45.5t-17 -63v-460q0 -52 37 -89
t89 -37h752q52 0 89 37t37 89v460q0 52 -37 88.5t-89 36.5h-124l-41 98q-11 29 -37 47.5t-58 18.5v0zM512 8q-68 0 -116 48t-48 116t48 116t116 48t116 -48t48 -116t-48 -116t-116 -48z" />
    <glyph glyph-name="uniE605" unicode="&#xe605;" 
d="M334 -11l504 552l-190 175l-503 -551v1v-1v0l-80 -276zM650 672l144 -133l-463 -507l-143 134zM111 -61l59 202l138 -129zM519 -69h439v-48h-439v48zM686 104h272v-48h-272v48z" />
    <glyph glyph-name="uniE606" unicode="&#xe606;" 
d="M627 567v1h-1zM512 736h-10h-11l-10 -2h-10t-10 -1q-30 -3 -59 -10.5t-57 -18.5q301 -298 309 -309v317l-4 2q-2 1 -4.5 1.5t-4.5 1t-4.5 1.5t-5 1.5t-4.5 1.5q-57 15 -115 15v0zM627 567l-1 1h1v-1zM788 406h1l-1 1v-1zM826 607q-9 8 -18.5 16.5t-19.5 16.5
q-23 19 -49 34.5t-53 26.5q2 -423 0 -437l224 225q-6 13 -13 25q-30 52 -71 93v0zM788 406v1l1 -1h-1zM789 172v1v-1zM925 454q-298 -301 -309 -309h317q5 13 9 27l4 18l4 20q2 9 3 18.5t2 19.5t1.5 20t0.5 20q0 24 -3 50q-1 12 -3 24t-5 24l-6 22q-3 12 -7 23.5t-8 22.5z
M789 172v1v-1zM625 9v-1v1zM483 111l225 -224q13 6 25 13q51 30 92 71q17 17 34 38q37 47 61 102q1 0 -24 0h-61h-83q-46 0 -91.5 -0.5t-84.5 -0.5t-64.5 0.5t-28.5 0.5v0zM625 9v-1v1zM395 9h1h-1zM368 182v-318q13 -4 27 -8q57 -15 115 -15q25 0 51 3q60 6 116 29l-17 17
q-17 16 -43.5 42.5t-59 58.5t-65.5 65l-60 60q-27 27 -45 45.5t-19 20.5zM395 9h1h-1zM233 172v1v-1zM336 314l-224 -224q5 -12 13 -25q29 -52 71 -93q9 -9 18 -17t20 -16q47 -38 102 -61v110q-1 110 -1 207t1 119v0zM233 172v1v-1zM233 404zM80 404q-7 -28 -11 -57t-4 -58
q0 -13 1 -25.5t2 -25.5q7 -60 29 -115q298 301 309 309h-317q-5 -13 -9 -28v0zM233 404zM395 566zM287 675q-51 -30 -92 -71q-17 -17 -34 -38q-19 -24 -34 -49.5t-27 -53.5h437l-225 225q-13 -7 -25 -13zM395 566zM395 566z" />
    <glyph glyph-name="uniE607" unicode="&#xe607;" 
d="M704 56h-499v360h115q28 39 85 76h-239q-16 0 -27 -11t-11 -27v-436q0 -6 2 -12t5.5 -10.5t8 -8t10.5 -5.5t12 -2h576q16 0 27.5 11t11.5 27v218l-77 -63v-117zM640 364v-128l256 191l-256 193v-119q-63 0 -115 -18.5t-84 -47.5t-56.5 -64t-36 -70t-18.5 -64t-9 -47
l-1 -18q68 111 132.5 151.5t187.5 40.5z" />
    <glyph glyph-name="uniE608" unicode="&#xe608;" 
d="M558 696h8q3 0 7 -0.5t7.5 -1.5t7 -2.5t7.5 -2.5l12 -6q6 -3 11 -7.5t10 -8.5q13 -16 19.5 -36.5t3.5 -46.5q-1 -25 -4 -47.5t-6 -39.5t-6.5 -32t-6.5 -25.5t-6 -19.5q-9 -27 -20 -39q-4 -5 -6.5 -10.5t-3 -10t-0.5 -9t1 -8t2 -6.5q9 -22 34 -25h68h173q13 0 30 -8
q7 -3 11.5 -6t6.5 -6q-1 -99 -27 -183q-19 -60 -49 -108q-24 -40 -54 -70q-39 -39 -70 -50h-590q-7 0 -12.5 5t-5.5 11v399q0 3 1.5 6t4 5t6 3.5t6.5 1.5h2h2q48 4 182 29q86 16 120 76.5t90 266.5q1 3 5.5 6t12 4.5t16.5 1.5v0zM558 737q-27 0 -47.5 -11t-25.5 -31
q-18 -65 -27 -96t-21.5 -71t-21 -56.5t-20 -37t-24 -28t-28 -14.5t-37.5 -11q-58 -11 -102.5 -18t-60.5 -8l-15 -2q-16 0 -29.5 -7.5t-21.5 -21t-8 -28.5v-399q0 -15 8 -28t21.5 -21t29.5 -8h594q6 0 22 7.5t40.5 26.5t49.5 46.5t51.5 74t44.5 102.5q13 42 20.5 92t8.5 79
v28q0 22 -30.5 39.5t-58.5 17.5h-173h-64l3 5q4 4 12 19.5t16 38.5t16 66.5t12 98.5q3 31 -4 57.5t-20.5 44.5t-32 30.5t-38 18t-39.5 5.5v0zM247 353q-12 0 -20.5 -8t-8.5 -20v-421q0 -12 8.5 -20t20.5 -8q6 0 11.5 2.5t9.5 6t6.5 8.5t2.5 11v421q0 4 -0.5 7t-2 5.5t-3.5 5
t-5 4.5t-5.5 3t-6 2t-7.5 1z" />
    <glyph glyph-name="uniE609" unicode="&#xe609;" 
d="M250 670q-19 0 -37 -6t-32 -17t-25 -25t-17 -32t-6 -37q0 -31 15.5 -58t42.5 -42.5t58.5 -15.5t58.5 15.5t42.5 42.5t15.5 58q0 49 -34 83t-82 34zM250 469q-23 0 -42.5 11t-31 30.5t-11.5 42.5t11.5 42.5t31 31t42.5 11.5q35 0 59.5 -25t24.5 -60t-24.5 -59.5
t-59.5 -24.5zM926 800h-828q-26 0 -48 -13t-35 -35t-13 -48v-828q0 -40 28 -68t68 -28h610l4 -4l4 4h210q40 0 68 28t28 68v828q0 40 -28 68t-68 28zM98 -188q-27 0 -45.5 18.5t-18.5 45.5v56l279 249l364 -369h-579zM990 -124q0 -27 -18.5 -45.5t-45.5 -18.5h-204l-251 254
l315 313l204 -204v-299zM990 220l-204 204l-337 -335l-134 136l-281 -251v730q0 13 5 25t13.5 20.5t20.5 13.5t25 5h828q18 0 32.5 -8.5t23 -23t8.5 -32.5v-484z" />
    <glyph glyph-name="uniE60A" unicode="&#xe60a;" 
d="M482 314h50l16 63h-49zM859 712h-694q-27 0 -50 -13t-36.5 -36t-13.5 -50v-546q0 -41 29 -70t71 -29h241v-149l165 149h288q42 0 71 29t29 70v546q0 41 -29 70t-71 29zM650 381h-52l-15 -61h56l-9 -38h-56l-20 -80h-50l20 80h-53l-20 -80h-50l20 80h-58l9 38h58l14 61
h-59l9 38h59l18 81h51l-18 -81h52l20 81h51l-20 -81h54z" />
    <glyph glyph-name="uniE60B" unicode="&#xe60b;" 
d="M856 711h-688q-43 0 -73.5 -31t-30.5 -74v-437q0 -28 14 -52t38 -38t52 -14h277v-200l173 200h238q28 0 52 14t38 38t14 52v437q0 43 -30.5 74t-73.5 31zM930 169q0 -30 -22 -52t-52 -22h-252l-129 -148v148h-307q-15 0 -28.5 6t-23.5 16t-16 23.5t-6 28.5v437
q0 20 10 37t27 27t37 10h688q15 0 28.5 -5.5t23.5 -15.5t16 -24t6 -29v-437zM281 441q-11 0 -20.5 -4t-16.5 -11t-11 -16.5t-4 -20.5q0 -21 15 -36.5t36.5 -15.5t37 15.5t15.5 37t-15.5 36.5t-36.5 15zM512 441q-6 0 -12 -1.5t-11 -4t-9.5 -6t-8 -8t-6 -9.5t-4 -11t-1.5 -12
q0 -14 7 -26t19 -19t26 -7q22 0 37 15.5t15 37t-15.5 36.5t-36.5 15zM743 441q-21 0 -36.5 -15t-15.5 -36.5t15.5 -37t36.5 -15.5q14 0 26 7t19 19t7 26t-7 26t-19 19t-26 7z" />
    <glyph glyph-name="uniE60C" unicode="&#xe60c;" 
d="M856 701h-690q-43 0 -74 -31t-31 -74v-439q0 -44 31 -74.5t74 -30.5h278v-201l174 201h238q22 0 41 8.5t33.5 22.5t22.5 33t8 41v439q0 21 -8 40.5t-22.5 33.5t-33.5 22.5t-41 8.5zM279 325q-22 0 -37 15.5t-15 37t15 37t37 15.5q10 0 20 -4.5t17 -11.5t11 -16.5t4 -20
t-4 -20t-11 -16.5t-17 -11.5t-20 -4.5zM511 325q-21 0 -36.5 15.5t-15.5 37.5q0 8 2.5 16t7.5 14.5t11.5 11t14.5 7.5t16 3q22 0 37 -15.5t15 -36.5q0 -9 -2.5 -17t-7.5 -14.5t-11 -11t-14 -7.5t-17 -3zM743.5 325q-21.5 0 -37 15.5t-15.5 37.5q0 14 7 26t19 19t26.5 7
t26.5 -7t19 -19t7 -26q0 -22 -15.5 -37.5t-37 -15.5z" />
    <glyph glyph-name="uniE60D" unicode="&#xe60d;" 
d="M819 -88h-614q-28 0 -48 20t-20 49v614q0 28 20 48t48 20h409q5 0 9 -1.5t7.5 -4.5t5 -7.5t1.5 -9.5q0 -9 -6.5 -15.5t-16.5 -6.5h-386q-19 0 -32.5 -13.5t-13.5 -32.5v-569q0 -12 6 -22.5t16.5 -16.5t23.5 -6h568q19 0 32.5 13t13.5 32v410q0 9 6.5 16t16 7t16 -7
t6.5 -16v-432q0 -12 -3 -22t-9.5 -18.5t-15 -15t-19 -10t-21.5 -3.5zM448 214q-7 -7 -16.5 -7t-16.5 7q-4 4 -5.5 10t0 12t5.5 10l409 411q3 2 5.5 3.5t5.5 2.5t5.5 1t5.5 -1t5.5 -2.5t5.5 -3.5l4 -6q2 -3 2 -7v-6q0 -4 -2 -7l-4 -6z" />
    <glyph glyph-name="uniE60E" unicode="&#xe60e;" 
d="M361 622l334 -334l-33 -33l-333 334zM694 287l-332 -333l-33 33l332 333z" />
    <glyph glyph-name="uniE60F" unicode="&#xe60f;" 
d="M846 439l-334 -334l-33 33l334 333zM511 106l-333 332l33 33l333 -332z" />
    <glyph glyph-name="uniE610" unicode="&#xe610;" 
d="M663 -46l-334 334l33 33l333 -334zM330 289l332 333l33 -33l-332 -333z" />
    <glyph glyph-name="uniE611" unicode="&#xe611;" 
d="M178 137l334 334l33 -33l-334 -333zM513 470l333 -332l-33 -33l-333 332z" />
    <glyph glyph-name="uniE614" unicode="&#xe614;" 
d="M957 396q-3 8 -9.5 14t-15.5 7l-271 42l-120 259q-9 18 -29 18q-21 0 -29 -18l-122 -258l-271 -41q-19 -3 -25.5 -21.5t7.5 -32.5l196 -202l-47 -285q-1 -9 2.5 -17.5t11.5 -13.5q16 -12 33 -2l242 133l242 -134q2 -1 4.5 -2t5 -1.5t5.5 -0.5h1q13 0 22.5 9.5t9.5 22.5
q0 6 -2 11l-45 279l197 201q13 14 7 33z" />
    <glyph glyph-name="uniE615" unicode="&#xe615;" 
d="M512 758q-64 0 -124.5 -17t-112 -47.5t-95 -74t-74 -95t-47 -112t-16.5 -124.5q0 -96 37 -183t100 -150t150 -100t182.5 -37t182.5 37t150 100t100 150t37 182.5t-37.5 182.5t-100 150t-149.5 100.5t-183 37.5zM744 387l-279 -267q-5 -5 -12.5 -5t-12.5 5l-6 5l-6 6
l-26 25v1l-121 116q-5 5 -5 12t5 12l38 37q2 1 3.5 2t3.5 2h4q2 1 4 0h4q2 -1 3.5 -2t3.5 -2l108 -105l228 218q5 6 12.5 6t12.5 -6l38 -36q5 -5 5 -12t-5 -12z" />
    <glyph glyph-name="uniE616" unicode="&#xe616;" 
d="M511.5 758q-95.5 0 -182.5 -37.5t-150 -100.5t-100 -149.5t-37 -182.5q0 -76 23.5 -148t67 -129.5t101.5 -101t129.5 -67.5t148 -24t148 24t129.5 67.5t101.5 101t67 129.5t23.5 148q0 96 -37 182.5t-100 149.5t-150 100.5t-182.5 37.5zM511 590q57 0 99.5 -34t49.5 -85
h-47q-11 36 -39 58t-63 22t-62.5 -22t-38.5 -58h-47q9 65 70 99q37 20 78 20zM699 -14h-375q-20 0 -33.5 11.5t-13.5 27.5v5l35 404h397l37 -403v-6q0 -16 -13.5 -27.5t-33.5 -11.5z" />
    <glyph glyph-name="uniE617" unicode="&#xe617;" 
d="M511.5 424q-55.5 0 -94.5 -38t-39 -92q0 -35 18 -65t49 -47.5t67 -17.5q55 0 94.5 38t39.5 92t-39.5 92t-95 38zM512 201q-40 0 -68 27.5t-28 65.5q0 19 8 36t20.5 29.5t30.5 20t37 7.5q39 0 67 -27t28 -66q0 -25 -12.5 -46.5t-34.5 -34t-48 -12.5zM511.5 758
q-95.5 0 -182 -37.5t-149.5 -100.5t-100.5 -149.5t-37.5 -182t37.5 -182.5t100.5 -150t149.5 -100t182 -37t182.5 37t150 100t100 150t37 182.5t-37 182t-100 149.5t-150 100.5t-182.5 37.5zM779 173q0 -20 -10 -37t-27.5 -27t-38.5 -10h-382q-32 0 -54 21.5t-22 52.5v223
q0 31 22 53t54 22h53q4 8 9 15t12 12.5t15 10t17 6.5t18 2h134q16 0 30 -6t24.5 -16.5t16.5 -23.5h53q21 0 38.5 -10t27.5 -27t10 -38v-223z" />
    <glyph glyph-name="uniE618" unicode="&#xe618;" 
d="M512 758q-96 0 -182.5 -37.5t-149.5 -100.5t-100.5 -149.5t-37.5 -182.5q0 -76 24 -148t67.5 -129.5t101 -101t129.5 -67.5t148 -24q96 0 182.5 37.5t149.5 100.5t100.5 149.5t37.5 182.5q0 64 -17 125t-47.5 112.5t-73.5 94.5t-94.5 73.5t-112.5 47.5t-125 17zM735 12
q-11 -4 -40 -10q-13 -2 -39 -5q-23 -3 -51 -5q-14 -1 -26.5 -2t-25.5 -2q-26 -2 -40 -2q-18 0 -46 2q-23 2 -55 5q-27 3 -53 6q-22 3 -35 5q-15 3 -31 7q-14 4 -15 13q-1 2 1 6q2 3 6 6l7 5l4 2q2 1 3 2q4 4 10 17q8 15 17 36l9 21q6 14 9 20q0 1 1 3q10 23 14 31
q4 9 8.5 19.5t9.5 23.5q12 33 17 45q3 9 18 49q2 0 3 17l-3 15l-2 4v6q-1 2 -1 5q-1 1 -2 6.5t-1.5 8t-2.5 8.5t-2 8q0 1 -1 3q-1 3 -1.5 5t-1 4.5t-1.5 5.5q-2 8 -6 20q3 0 6 1t6 4l7 7q4 4 6 8t1 8q-2 12 -3 17q-1 4 -3 18l-6 28q-1 3 -1.5 6.5t-1.5 6t-1.5 6t-1 6.5
t-1.5 5q-1 4 -2.5 11t-2.5 9q-2 10 -6 22t-6 15q-2 7 -3 10t-0.5 5t3.5 3q6 3 14 -2q9 -5 16 -23q2 -5 10 -24q10 -21 19 -39q2 -4 4.5 -7t5 -6.5t5.5 -7.5q3 -3 5 -5.5t4.5 -4.5t4.5 -5l5 -4q5 -5 10 -8.5t10 -5.5q11 -6 20 -6q3 0 7.5 1.5t8.5 3.5q10 6 19 13q9 8 18 17
q3 2 5.5 5t4.5 5.5t4 5.5q6 8 11 19l12 24q6 13 9 22q1 3 2 5.5t2 4t1 2.5q3 5 7 12q6 9 14 8q3 0 5 -0.5t3 -2t1 -4t-1 -6.5q0 -5 -5 -18q-2 -6 -4.5 -13t-4.5 -16q-2 -4 -3 -9.5t-2 -11.5l-6 -24q-1 -3 -1.5 -7.5t-1.5 -8.5t-1 -7q-1 -3 -2 -8t-1 -6q-2 -8 -4.5 -17
t0.5 -18q5 -11 15 -16q2 -1 5 -2t5 -2q0 -2 -0.5 -4t-1.5 -3.5t-1 -3.5l-2 -4q0 -2 -1 -4.5t-2 -5.5t-1 -5q-3 -8 -5 -18q-1 -2 -1.5 -5.5t-1.5 -6.5t-1 -5l-4 -16q-2 -9 -3 -16q-1 1 -1 -1q-3 -9 4 -17l6 -18q3 -9 7 -18q3 -7 6.5 -16.5t7.5 -21.5q8 -22 18 -43
q3 -8 7 -17.5t9 -21.5q12 -26 21 -47q3 -8 6.5 -15t6.5 -13.5t6 -13.5q10 -18 13 -22q4 -3 12 -8q7 -5 8 -9q-2 -9 -12 -14z" />
    <glyph glyph-name="uniE619" unicode="&#xe619;" 
d="M715 481h-464v-327h464v327zM360.5 462q21.5 0 36.5 -15t15 -36q0 -11 -4.5 -20.5t-11 -16.5t-16 -11t-19.5 -4q-21 0 -36 15t-15 36.5t14.5 36.5t36 15zM693 176h-422l60 78l42 -38l101 120l40 -42l80 105l99 -145v-78zM513 758q-77 0 -148.5 -24t-129.5 -67.5
t-101.5 -101.5t-67 -129.5t-23.5 -148t23.5 -148.5t67 -129.5t101.5 -101t129.5 -67.5t148.5 -24q95 0 182.5 37.5t150 100t100 150t37.5 183t-37.5 182.5t-100 150t-150 100.5t-182.5 37.5zM251 115q-14 0 -23 5.5t-13.5 14.5t-4.5 21v56v107v104v58q0 18 10.5 29.5
t30.5 11.5h55h114h127h113h54q40 0 40 -41v-57v-104v-104v-60q1 -16 -4 -25t-13.5 -13t-22.5 -4q-92 1 -463 1zM815 94q0 -21 -8.5 -31.5t-31.5 -10.5h-464q-14 0 -24 8.5t-13 17t-3 15.5h472q18 0 26.5 14t7.5 28l-2 14v311q7 0 15.5 -3t16.5 -13t8 -25v-325z" />
  </font>
</defs>
</svg>
